G04*
G04 #@! TF.GenerationSoftware,Altium Limited,Altium Designer,25.1.2 (22)*
G04*
G04 Layer_Color=65535*
%FSLAX44Y44*%
%MOMM*%
G71*
G04*
G04 #@! TF.SameCoordinates,1A916D9B-B9E1-405E-A4A7-EFB9F428AACD*
G04*
G04*
G04 #@! TF.FilePolarity,Positive*
G04*
G01*
G75*
%ADD10C,0.2000*%
%ADD11C,0.1000*%
%ADD12C,0.2540*%
D10*
X243440Y-89060D02*
G03*
X243440Y-89060I-25000J0D01*
G01*
X491090Y-87790D02*
G03*
X491090Y-87790I-25000J0D01*
G01*
X355380Y-38070D02*
X401380D01*
X355380Y-142070D02*
Y-38070D01*
Y-142070D02*
X386080D01*
X136010Y-113510D02*
Y-78510D01*
X151010D01*
Y-113510D02*
Y-78510D01*
X136010Y-113510D02*
X151010D01*
X136010Y-106010D02*
X143510Y-113510D01*
Y-134010D02*
Y-113510D01*
Y-78510D02*
Y-58010D01*
X562450Y-109240D02*
X564950D01*
Y-73240D01*
X562450D02*
X564950D01*
X539950D02*
X542450D01*
X539950Y-109240D02*
Y-73240D01*
Y-109240D02*
X542450D01*
X307180Y-109640D02*
X309680D01*
Y-73640D01*
X307180D02*
X309680D01*
X284680D02*
X287180D01*
X284680Y-109640D02*
Y-73640D01*
Y-109640D02*
X287180D01*
D11*
X534450Y-103740D02*
G03*
X533450Y-103740I-500J0D01*
G01*
D02*
G03*
X534450Y-103740I500J0D01*
G01*
X279180Y-104140D02*
G03*
X278180Y-104140I-500J0D01*
G01*
D02*
G03*
X279180Y-104140I500J0D01*
G01*
X616470Y-117870D02*
Y-62470D01*
X681470D01*
Y-117870D02*
Y-62470D01*
X616470Y-117870D02*
X681470D01*
X32270D02*
Y-62470D01*
X97270D01*
Y-117870D02*
Y-62470D01*
X32270Y-117870D02*
X97270D01*
D12*
X613662Y-36832D02*
X611123D01*
X612393D01*
Y-43180D01*
X611123Y-44450D01*
X609854D01*
X608584Y-43180D01*
X621280Y-44450D02*
X616202D01*
X621280Y-39372D01*
Y-38102D01*
X620010Y-36832D01*
X617471D01*
X616202Y-38102D01*
X29462Y-36832D02*
X26923D01*
X28193D01*
Y-43180D01*
X26923Y-44450D01*
X25654D01*
X24384Y-43180D01*
X32002Y-44450D02*
X34541D01*
X33271D01*
Y-36832D01*
X32002Y-38102D01*
X355092Y-20069D02*
X357631D01*
X356362D01*
Y-27686D01*
X355092D01*
X357631D01*
X366518Y-21338D02*
X365249Y-20069D01*
X362710D01*
X361440Y-21338D01*
Y-26416D01*
X362710Y-27686D01*
X365249D01*
X366518Y-26416D01*
X369058Y-27686D02*
X371597D01*
X370327D01*
Y-20069D01*
X369058Y-21338D01*
X134874Y-24641D02*
Y-32258D01*
X138683D01*
X139952Y-30988D01*
Y-25910D01*
X138683Y-24641D01*
X134874D01*
X142492Y-32258D02*
X145031D01*
X143761D01*
Y-24641D01*
X142492Y-25910D01*
X536954Y-38102D02*
X535685Y-36832D01*
X533146D01*
X531876Y-38102D01*
Y-43180D01*
X533146Y-44450D01*
X535685D01*
X536954Y-43180D01*
X543302Y-44450D02*
Y-36832D01*
X539493Y-40641D01*
X544572D01*
X443482Y-43690D02*
X442213Y-42421D01*
X439674D01*
X438404Y-43690D01*
Y-48768D01*
X439674Y-50038D01*
X442213D01*
X443482Y-48768D01*
X446021Y-43690D02*
X447291Y-42421D01*
X449830D01*
X451100Y-43690D01*
Y-44960D01*
X449830Y-46229D01*
X448561D01*
X449830D01*
X451100Y-47499D01*
Y-48768D01*
X449830Y-50038D01*
X447291D01*
X446021Y-48768D01*
X281684Y-38356D02*
X280415Y-37087D01*
X277876D01*
X276606Y-38356D01*
Y-43434D01*
X277876Y-44704D01*
X280415D01*
X281684Y-43434D01*
X289302Y-44704D02*
X284223D01*
X289302Y-39626D01*
Y-38356D01*
X288032Y-37087D01*
X285493D01*
X284223Y-38356D01*
X195832Y-44960D02*
X194563Y-43691D01*
X192024D01*
X190754Y-44960D01*
Y-50038D01*
X192024Y-51308D01*
X194563D01*
X195832Y-50038D01*
X198372Y-51308D02*
X200911D01*
X199641D01*
Y-43691D01*
X198372Y-44960D01*
M02*
