G04*
G04 #@! TF.GenerationSoftware,Altium Limited,Altium Designer,25.1.2 (22)*
G04*
G04 Layer_Color=16711935*
%FSLAX44Y44*%
%MOMM*%
G71*
G04*
G04 #@! TF.SameCoordinates,297E0FD2-5008-4436-B75F-F66AD0950BE0*
G04*
G04*
G04 #@! TF.FilePolarity,Positive*
G04*
G01*
G75*
%ADD10C,0.2000*%
%ADD11C,0.1000*%
D10*
X616470Y-117870D02*
Y-62470D01*
X681470D01*
Y-117870D02*
Y-62470D01*
X616470Y-117870D02*
X681470D01*
X32270D02*
Y-62470D01*
X97270D01*
Y-117870D02*
Y-62470D01*
X32270Y-117870D02*
X97270D01*
D11*
X243440Y-89060D02*
G03*
X243440Y-89060I-25000J0D01*
G01*
X491090Y-87790D02*
G03*
X491090Y-87790I-25000J0D01*
G01*
X355380Y-142070D02*
Y-38070D01*
X401380D01*
Y-142070D02*
Y-38070D01*
X355380Y-142070D02*
X401380D01*
X355380Y-129320D02*
X368130Y-142070D01*
X136010Y-113510D02*
Y-78510D01*
X151010D01*
Y-113510D02*
Y-78510D01*
X136010Y-113510D02*
X151010D01*
X136010Y-106010D02*
X143510Y-113510D01*
Y-143510D02*
Y-113510D01*
Y-78510D02*
Y-48510D01*
X564950Y-109240D02*
Y-73240D01*
X539950D02*
X564950D01*
X539950Y-109240D02*
Y-73240D01*
Y-109240D02*
X564950D01*
X309680Y-109640D02*
Y-73640D01*
X284680D02*
X309680D01*
X284680Y-109640D02*
Y-73640D01*
Y-109640D02*
X309680D01*
M02*
