G04*
G04 #@! TF.GenerationSoftware,Altium Limited,Altium Designer,25.1.2 (22)*
G04*
G04 Layer_Color=2752767*
%FSLAX44Y44*%
%MOMM*%
G71*
G04*
G04 #@! TF.SameCoordinates,297E0FD2-5008-4436-B75F-F66AD0950BE0*
G04*
G04*
G04 #@! TF.FilePolarity,Positive*
G04*
G01*
G75*
%ADD28C,0.1270*%
%ADD29C,0.1693*%
D28*
X643890Y-107950D02*
Y-97790D01*
X654050D01*
Y-107950D01*
X643890D01*
Y-82550D02*
Y-72390D01*
X654050D01*
Y-82550D01*
X643890D01*
X386080Y-120650D02*
X381000Y-110490D01*
X391160D01*
X386080Y-120650D01*
Y-95150D02*
X381000Y-84990D01*
X391160D01*
X386080Y-95150D01*
Y-69650D02*
X381000Y-59490D01*
X391160D01*
X386080Y-69650D01*
X143510Y-148590D02*
X146050Y-146050D01*
X148590D01*
X146050Y-143510D01*
X148590Y-140970D01*
X146050D01*
X143510Y-138430D01*
X140970Y-140970D01*
X138430D01*
X140970Y-143510D01*
X138430Y-146050D01*
X140970D01*
X143510Y-148590D01*
Y-53590D02*
X146050Y-51050D01*
X148590D01*
X146050Y-48510D01*
X148590Y-45970D01*
X146050D01*
X143510Y-43430D01*
X140970Y-45970D01*
X138430D01*
X140970Y-48510D01*
X138430Y-51050D01*
X140970D01*
X143510Y-53590D01*
X59690Y-107950D02*
Y-97790D01*
X69850D01*
Y-107950D01*
X59690D01*
Y-82550D02*
Y-72390D01*
X69850D01*
Y-82550D01*
X59690D01*
D29*
X223520Y-99060D02*
G03*
X223520Y-99060I-5080J0D01*
G01*
Y-79060D02*
G03*
X223520Y-79060I-5080J0D01*
G01*
X471170Y-97790D02*
G03*
X471170Y-97790I-5080J0D01*
G01*
Y-77790D02*
G03*
X471170Y-77790I-5080J0D01*
G01*
X557530Y-103740D02*
G03*
X557530Y-103740I-5080J0D01*
G01*
Y-78740D02*
G03*
X557530Y-78740I-5080J0D01*
G01*
X302260Y-104140D02*
G03*
X302260Y-104140I-5080J0D01*
G01*
Y-79140D02*
G03*
X302260Y-79140I-5080J0D01*
G01*
M02*
